<svg xmlns="http://www.w3.org/2000/svg" id="Camada_2" viewBox="0 0 389.31 60.92"><defs><style>.cls-1{fill:#522a10;}</style></defs><g id="Camada_1-2"><g><path class="cls-1" d="M35.32,51.15c-1.65,1.33-3.42,2.31-5.31,2.94-1.89,.63-3.73,.95-5.52,.95-2.57,0-4.94-.56-7.12-1.67-2.18-1.11-4.07-2.61-5.67-4.5-1.6-1.89-2.84-4.07-3.74-6.54-.9-2.47-1.35-5.04-1.35-7.71,0-2.42,.38-4.83,1.13-7.23,.75-2.4,1.88-4.57,3.38-6.51,1.5-1.94,3.35-3.49,5.56-4.65,2.2-1.16,4.73-1.74,7.59-1.74,1.74,0,3.53,.27,5.34,.8,1.82,.53,3.51,1.44,5.09,2.72,1.57,1.29,2.87,3.02,3.89,5.2l5.16-3.34c-1.6-3.29-4.05-6-7.34-8.1-3.29-2.11-7.24-3.16-11.85-3.16-3.88,0-7.34,.74-10.39,2.22-3.05,1.48-5.63,3.47-7.74,5.96-2.11,2.5-3.71,5.26-4.8,8.29-1.09,3.03-1.64,6.12-1.64,9.27s.59,6.46,1.78,9.63c1.19,3.18,2.86,6.03,5.01,8.58,2.16,2.54,4.71,4.58,7.67,6.1,2.95,1.53,6.2,2.29,9.74,2.29,2.66,0,5.37-.46,8.1-1.38,2.74-.92,5.22-2.28,7.45-4.07,2.23-1.79,3.87-3.97,4.94-6.54l-5.45-2.98c-.97,2.14-2.28,3.86-3.93,5.2Z"></path><path class="cls-1" d="M89.61,35.05c0,2.47-.25,4.89-.76,7.27-.51,2.37-1.35,4.52-2.51,6.43-1.16,1.92-2.74,3.44-4.73,4.58-1.99,1.14-4.48,1.71-7.48,1.71s-5.43-.56-7.41-1.67c-1.99-1.11-3.56-2.61-4.72-4.5-1.16-1.89-2-4.03-2.51-6.43-.51-2.4-.76-4.86-.76-7.38V8.97h-6.54v26.09c0,3.29,.39,6.49,1.16,9.59,.77,3.1,2.01,5.87,3.71,8.32,1.69,2.45,3.95,4.38,6.76,5.81,2.81,1.43,6.28,2.14,10.39,2.14s7.35-.69,10.14-2.07c2.79-1.38,5.05-3.26,6.8-5.63,1.74-2.37,3.02-5.12,3.81-8.25,.8-3.12,1.2-6.43,1.2-9.92V8.97h-6.54v26.09Z"></path><path class="cls-1" d="M140.37,37.67c1.62-1.5,2.88-3.32,3.78-5.45,.9-2.14,1.35-4.39,1.35-6.76,0-2.03-.39-4.03-1.16-6-.78-1.96-1.87-3.73-3.27-5.31-1.41-1.57-3.05-2.83-4.94-3.78s-3.97-1.41-6.25-1.41h-22.09V60.56h6.54v-18.53h13.66l11.77,18.53h7.41l-12.5-19.77c2.18-.59,4.08-1.63,5.7-3.13Zm-10.43-1.45h-15.63V14.78h15.19c1.69,0,3.25,.48,4.65,1.45,1.4,.97,2.54,2.27,3.42,3.89,.87,1.62,1.31,3.4,1.31,5.34s-.38,3.66-1.12,5.31c-.75,1.65-1.79,2.97-3.13,3.96-1.33,.99-2.9,1.49-4.69,1.49Z"></path><path class="cls-1" d="M189.97,51.15c-1.65,1.33-3.42,2.31-5.31,2.94-1.89,.63-3.73,.95-5.52,.95-2.57,0-4.94-.56-7.12-1.67-2.18-1.11-4.07-2.61-5.67-4.5-1.6-1.89-2.84-4.07-3.74-6.54-.9-2.47-1.35-5.04-1.35-7.71,0-2.42,.38-4.83,1.13-7.23,.75-2.4,1.88-4.57,3.38-6.51,1.5-1.94,3.35-3.49,5.56-4.65,2.2-1.16,4.73-1.74,7.59-1.74,1.74,0,3.53,.27,5.34,.8,1.82,.53,3.51,1.44,5.09,2.72,1.57,1.29,2.87,3.02,3.89,5.2l5.16-3.34c-1.6-3.29-4.05-6-7.34-8.1-3.29-2.11-7.24-3.16-11.85-3.16-3.88,0-7.34,.74-10.39,2.22-3.05,1.48-5.63,3.47-7.74,5.96-2.11,2.5-3.71,5.26-4.8,8.29-1.09,3.03-1.64,6.12-1.64,9.27s.59,6.46,1.78,9.63c1.19,3.18,2.86,6.03,5.01,8.58,2.16,2.54,4.71,4.58,7.67,6.1,2.95,1.53,6.2,2.29,9.74,2.29,2.66,0,5.37-.46,8.1-1.38,2.74-.92,5.22-2.28,7.45-4.07,2.23-1.79,3.87-3.97,4.94-6.54l-5.45-2.98c-.97,2.14-2.28,3.86-3.93,5.2Z"></path><path class="cls-1" d="M244.27,35.05c0,2.47-.25,4.89-.76,7.27-.51,2.37-1.35,4.52-2.51,6.43-1.16,1.92-2.74,3.44-4.73,4.58-1.99,1.14-4.48,1.71-7.48,1.71s-5.43-.56-7.41-1.67c-1.99-1.11-3.56-2.61-4.72-4.5-1.16-1.89-2-4.03-2.51-6.43-.51-2.4-.76-4.86-.76-7.38V8.97h-6.54v26.09c0,3.29,.39,6.49,1.16,9.59,.77,3.1,2.01,5.87,3.71,8.32,1.69,2.45,3.95,4.38,6.76,5.81,2.81,1.43,6.28,2.14,10.39,2.14s7.35-.69,10.14-2.07c2.79-1.38,5.05-3.26,6.8-5.63,1.74-2.37,3.02-5.12,3.81-8.25,.8-3.12,1.2-6.43,1.2-9.92V8.97h-6.54v26.09Z"></path><polygon class="cls-1" points="288.01 42.47 269.34 8.97 262.43 8.97 262.43 60.56 268.97 60.56 268.97 21.17 286.05 51.48 290.05 51.48 307.06 21.17 307.06 60.56 313.59 60.56 313.59 8.97 306.76 8.97 288.01 42.47"></polygon><polygon class="cls-1" points="343.54 35.85 327.91 8.97 320.71 8.97 340.26 41.6 340.26 60.56 346.81 60.56 346.81 41.74 366.43 8.97 359.31 8.97 343.54 35.85"></polygon><path class="cls-1" d="M383.98,8.51c.27-.25,.48-.55,.62-.9,.15-.35,.22-.72,.22-1.12,0-.34-.06-.67-.19-.99-.13-.32-.31-.62-.54-.88-.23-.26-.5-.47-.82-.62s-.66-.23-1.03-.23h-3.65V12.29h1.08v-3.06h2.26l1.94,3.06h1.22l-2.06-3.26c.36-.1,.67-.27,.94-.52Zm-1.72-.24h-2.58v-3.54h2.51c.28,0,.54,.08,.77,.24,.23,.16,.42,.37,.56,.64,.14,.27,.22,.56,.22,.88s-.06,.6-.19,.88c-.12,.27-.3,.49-.52,.65-.22,.16-.48,.25-.77,.25Z"></path><path class="cls-1" d="M381.17,0c-4.49,0-8.15,3.66-8.15,8.15s3.65,8.15,8.15,8.15,8.15-3.65,8.15-8.15-3.65-8.15-8.15-8.15Zm0,15.29c-3.94,0-7.15-3.21-7.15-7.15s3.21-7.15,7.15-7.15,7.15,3.21,7.15,7.15-3.21,7.15-7.15,7.15Z"></path></g></g></svg>